.
..............................Site Info...........................

 -   http://www.scenetime.com  *_*   

SceneTime is going to Close sign up on march/1, hurry up! get in before the doors are closed.

     We care to share . Join us on  http://www.scenetime.com 

    Be the first to get new release at  http://www.scenetime.com

        Seed back for speed


...................................NFO:.................................................[IMG]http://i.imgur.com/xyM4H.jpg[/IMG]
[color=yelow]
INFO: [/color]

Title:         How.To.Stop.Being.A.Loser.2011.DvDRiP.5.1.AC3.XViD-DQ1
Language:      English
Subtitles:     NO
Format:        Xvid
Sample:        Yes
IMDB:          http://www.imdb.com/title/tt1727506/
[color=yelow]
Plot: [/color]
James is useless with women, but his luck changes under the tutelage 
of pick-up artist, Ampersand. As James learns the art of seduction he 
begins to wonder about Ampersand's intentions and questions what would 
truly make him happy in life. 
[color=yelow]
Source: [/color]
Video:         OWN DVDR
Audio:         OWN DVDR

[IMG]http://i.imgur.com/TfrQ5.jpg[/IMG]

[color=yelow]
File Info: [/color]

Video:
Format                                   : MPEG-4 Visual
Format profile                           : Advanced Simple@L5
Format settings, BVOP                    : 2
Format settings, QPel                    : No
Format settings, GMC                     : No warppoints
Format settings, Matrix                  : Default (H.263)
Codec ID                                 : XVID
Codec ID/Hint                            : XviD
Duration                                 : 1h 44mn
Bit rate                                 : 1 035 Kbps
Width                                    : 720 pixels
Height                                   : 304 pixels
Display aspect ratio                     : 2.35:1
Frame rate                               : 29.970 fps
Color space                              : YUV
Chroma subsampling                       : 4:2:0
Bit depth                                : 8 bits
Scan type                                : Progressive
Compression mode                         : Lossy
Bits/(Pixel*Frame)                       : 0.158
Stream size                              : 776 MiB (69%)

Audio:
ID                                       : 1
Format                                   : AC-3
Format/Info                              : Audio Coding 3
Mode extension                           : CM (complete main)
Codec ID                                 : 2000
Duration                                 : 1h 44mn
Bit rate mode                            : Constant
Bit rate                                 : 448 Kbps
Channel(s)                               : 6 channels
Channel positions                        : Front: L C R, Side: L R, LFE
Sampling rate                            : 48.0 KHz
Bit depth                                : 16 bits
Compression mode                         : Lossy
Delay relative to video                  : 33ms
Stream size                              : 336 MiB (30%)
Alignment                                : Split accross interleaves
Interleave, duration                     : 500 ms (14.98 video frames)
Interleave, preload duration             : 500 ms
[color=yelow]
Screens: [/color]

[IMG]http://i.imgur.com/gVUPG.png[/IMG]
[IMG]http://i.imgur.com/7TLzX.png[/IMG]
[IMG]http://i.imgur.com/NblSs.png[/IMG]
[IMG]http://i.imgur.com/YLXhw.png[/IMG]
[IMG]http://i.imgur.com/92UPI.png[/IMG]